<?xml version="1.0" encoding="UTF-8" standalone="no"?>
<!-- Created with Inkscape (http://www.inkscape.org/) -->

<svg
   xmlns:dc="http://purl.org/dc/elements/1.1/"
   xmlns:cc="http://creativecommons.org/ns#"
   xmlns:rdf="http://www.w3.org/1999/02/22-rdf-syntax-ns#"
   xmlns:svg="http://www.w3.org/2000/svg"
   xmlns="http://www.w3.org/2000/svg"
   xmlns:sodipodi="http://sodipodi.sourceforge.net/DTD/sodipodi-0.dtd"
   xmlns:inkscape="http://www.inkscape.org/namespaces/inkscape"
   width="94.116074mm"
   height="94.116074mm"
   viewBox="0 0 94.116074 94.116074"
   version="1.1"
   id="svg8"
   inkscape:version="0.92.3 (2405546, 2018-03-11)"
   sodipodi:docname="cv.svg">
  <defs
     id="defs2" />
  <sodipodi:namedview
     id="base"
     pagecolor="#ffffff"
     bordercolor="#666666"
     borderopacity="1.0"
     inkscape:pageopacity="0.0"
     inkscape:pageshadow="2"
     inkscape:zoom="2.8"
     inkscape:cx="191.85604"
     inkscape:cy="168.8254"
     inkscape:document-units="mm"
     inkscape:current-layer="layer1"
     showgrid="false"
     inkscape:window-width="1920"
     inkscape:window-height="1013"
     inkscape:window-x="-9"
     inkscape:window-y="-9"
     inkscape:window-maximized="1"
     inkscape:pagecheckerboard="true"
     inkscape:snap-page="true" />
  <metadata
     id="metadata5">
    <rdf:RDF>
      <cc:Work
         rdf:about="">
        <dc:format>image/svg+xml</dc:format>
        <dc:type
           rdf:resource="http://purl.org/dc/dcmitype/StillImage" />
        <dc:title></dc:title>
      </cc:Work>
    </rdf:RDF>
  </metadata>
  <g
     inkscape:label="Layer 1"
     inkscape:groupmode="layer"
     id="layer1"
     transform="translate(-70.681541,-87.666039)">
    <path
       style="opacity:1;fill:#ffffff;fill-opacity:1;fill-rule:nonzero;stroke:none;stroke-width:3;stroke-linecap:butt;stroke-linejoin:miter;stroke-miterlimit:4;stroke-dasharray:none;stroke-dashoffset:1.36063004;stroke-opacity:1;paint-order:normal"
       d="M 177.85742,0 A 177.85715,177.85715 0 0 0 0,177.85742 177.85715,177.85715 0 0 0 177.85742,355.71484 177.85715,177.85715 0 0 0 355.71484,177.85742 177.85715,177.85715 0 0 0 177.85742,0 Z m -42.53125,124.64453 c 11.94192,0 22.32006,3.35324 31.13281,10.05859 l -10.25,17.91407 c -5.61972,-5.30042 -13.15606,-7.95117 -22.60742,-7.95117 -9.06819,0 -16.25231,3.03286 -21.55273,9.0996 -5.23656,6.00289 -7.85547,14.33725 -7.85547,25.00196 0,21.52099 10.25078,32.28125 30.75,32.28125 8.87661,0 16.69954,-2.93734 23.46875,-8.8125 l 8.8125,18.87109 c -6.9608,4.34252 -13.06031,7.08684 -18.29688,8.23633 -5.1727,1.14949 -11.3021,1.72461 -18.39062,1.72461 -15.83741,0 -28.35487,-4.59706 -37.550782,-13.79297 -9.132052,-9.25977 -13.697266,-22.09566 -13.697266,-38.50781 0,-16.15671 5.012964,-29.21745 15.039063,-39.17969 10.026095,-9.96224 23.691845,-14.94336 40.998045,-14.94336 z m 38.60352,1.91602 h 26.24609 l 24.52344,62.64843 26.3418,-62.64843 h 25.38476 l -47.51172,104.50781 h -8.62109 z"
       transform="matrix(0.26458333,0,0,0.26458333,70.681541,87.666039)"
       id="path820"
       inkscape:connector-curvature="0" />
  </g>
</svg>
