<?xml version="1.0" encoding="UTF-8" standalone="no"?>
<!-- Created with Inkscape (http://www.inkscape.org/) -->

<svg
   xmlns:dc="http://purl.org/dc/elements/1.1/"
   xmlns:cc="http://creativecommons.org/ns#"
   xmlns:rdf="http://www.w3.org/1999/02/22-rdf-syntax-ns#"
   xmlns:svg="http://www.w3.org/2000/svg"
   xmlns="http://www.w3.org/2000/svg"
   xmlns:sodipodi="http://sodipodi.sourceforge.net/DTD/sodipodi-0.dtd"
   xmlns:inkscape="http://www.inkscape.org/namespaces/inkscape"
   width="94.116074mm"
   height="94.116074mm"
   viewBox="0 0 94.116074 94.116074"
   version="1.1"
   id="svg8"
   inkscape:version="0.92.3 (2405546, 2018-03-11)"
   sodipodi:docname="cv.svg">
  <defs
     id="defs2" />
  <sodipodi:namedview
     id="base"
     pagecolor="#ffffff"
     bordercolor="#666666"
     borderopacity="1.0"
     inkscape:pageopacity="0.0"
     inkscape:pageshadow="2"
     inkscape:zoom="0.7"
     inkscape:cx="-245.21443"
     inkscape:cy="99.130737"
     inkscape:document-units="mm"
     inkscape:current-layer="layer1"
     showgrid="false"
     inkscape:window-width="1920"
     inkscape:window-height="1013"
     inkscape:window-x="-9"
     inkscape:window-y="-9"
     inkscape:window-maximized="1" />
  <metadata
     id="metadata5">
    <rdf:RDF>
      <cc:Work
         rdf:about="">
        <dc:format>image/svg+xml</dc:format>
        <dc:type
           rdf:resource="http://purl.org/dc/dcmitype/StillImage" />
        <dc:title></dc:title>
      </cc:Work>
    </rdf:RDF>
  </metadata>
  <g
     inkscape:label="Layer 1"
     inkscape:groupmode="layer"
     id="layer1"
     transform="translate(-70.681541,-87.666039)">
    <path
       style="opacity:1;fill:#ffffff;fill-opacity:1;fill-rule:nonzero;stroke:none;stroke-width:3;stroke-linecap:butt;stroke-linejoin:miter;stroke-miterlimit:4;stroke-dasharray:none;stroke-dashoffset:1.36063004;stroke-opacity:1;paint-order:normal"
       d="M 177.85742,0 A 177.85715,177.85715 0 0 0 0,177.85742 177.85715,177.85715 0 0 0 177.85742,355.71484 177.85715,177.85715 0 0 0 355.71484,177.85742 177.85715,177.85715 0 0 0 177.85742,0 Z m -58.0039,115.6875 c 8.97558,0 17.31694,1.68931 25.02539,5.06836 7.81404,3.27345 14.62586,7.81531 20.43359,13.62305 l -11.08789,12.98828 c -4.435,-4.435 -9.61011,-7.9208 -15.52344,-10.45508 -5.91333,-2.53428 -12.24777,-3.80078 -19.00586,-3.80078 -6.5469,0 -12.67286,1.10867 -18.375,3.32617 -5.702135,2.2175 -10.664864,5.3857 -14.888669,9.50391 -4.118211,4.01261 -7.391625,8.81752 -9.820313,14.41406 -2.323093,5.49095 -3.484375,11.56235 -3.484375,18.21484 0,6.33571 1.268451,12.24929 3.802735,17.74024 2.534283,5.38535 5.96552,10.03048 10.294921,13.9375 4.329401,3.90702 9.29213,6.97 14.888671,9.1875 5.59654,2.21749 11.51012,3.32617 17.74024,3.32617 7.70844,0 14.7833,-1.63671 21.2246,-4.91016 6.44131,-3.37904 11.87946,-7.91895 16.31446,-13.62109 l 10.61133,14.41211 c -6.01893,6.65249 -13.199,11.88021 -21.54102,15.68164 -8.23642,3.80142 -17.15842,5.70117 -26.76758,5.70117 -8.97558,0 -17.3189,-1.63671 -25.027341,-4.91016 -7.708446,-3.27345 -14.413097,-7.76075 -20.115235,-13.46289 -5.702137,-5.70213 -10.189441,-12.40678 -13.46289,-20.11523 -3.27345,-7.81404 -4.910157,-16.1554 -4.910156,-25.02539 0,-8.6588 1.689314,-16.68451 5.068359,-24.07617 3.48464,-7.49726 8.129767,-13.93887 13.9375,-19.32422 5.913328,-5.49095 12.725148,-9.76782 20.433594,-12.83008 7.708449,-3.06226 15.786759,-4.59375 24.234379,-4.59375 z m 60.88671,3.48438 h 18.69141 l 40.38867,98.83789 40.70703,-98.83789 h 19.00782 l -49.57813,118.1621 h -20.43164 z"
       transform="matrix(0.26458333,0,0,0.26458333,70.681541,87.666039)"
       id="path815"
       inkscape:connector-curvature="0" />
  </g>
</svg>
